<svg xmlns="http://www.w3.org/2000/svg" viewBox="0 0 82.59 161.33"><defs><style>.cls-1{fill:#fff;}</style></defs><title>Asset 1</title><g id="Layer_2" data-name="Layer 2"><g id="Слой_1" data-name="Слой 1"><path class="cls-1" d="M74.16,80.2c1.52-5.41,3-11.24,4.4-17.47C86.78,25.82,67.27.63,67.07.38A1,1,0,0,0,65.84.11C65.55.25,37.18,14.76,29,51.67c-1.32,5.92-2.4,11.55-3.3,16.85C17.94,72.81,4.78,83.37,0,106.87a1,1,0,0,0,1.49,1.06A41.35,41.35,0,0,1,20.36,103c.46,0,.91,0,1.37,0-.38,7.19-.28,11.32-.28,11.42a1,1,0,0,0,.78.95l5.61,1.25L27,120.38a1,1,0,0,0,.76,1.2l23,5.12.22,0a1,1,0,0,0,1-.78l.82-3.67,4.78,1.06.22,0a1,1,0,0,0,.89-.55c0-.09,1.86-3.74,4.54-10.33a41.22,41.22,0,0,1,15.5,12.67,1,1,0,0,0,.83.44c.06,0,.12,0,.18,0a.94.94,0,0,0,.79-.7C85.78,103.25,80,88.73,74.16,80.2Zm-71.73,25C7,85.27,18,75.52,25.23,71.09c-2,12.64-3,23.07-3.39,30-.49,0-1,0-1.47,0A43,43,0,0,0,2.43,105.2ZM66,2.3A73.91,73.91,0,0,1,77.57,32.07L60.22,28.21,42.87,24.34A73.88,73.88,0,0,1,66,2.3ZM39.81,55.92A14,14,0,0,1,56.43,45.23h0a14,14,0,0,1-6,27.35h0A14,14,0,0,1,39.81,55.92Zm10.42,68.6-21-4.69.6-2.7,21,4.69Zm7-3.62-5-1.41h0l-23-4h0l-5.81-1.56A255,255,0,0,1,26.1,79l21.76,4.79,21.76,4.67A246.26,246.26,0,0,1,57.22,120.9ZM79,122.27A42.53,42.53,0,0,0,64,110.6c2.5-6.3,6-15.93,9.51-28C78.56,90.67,83,103.64,79,122.27Z"/><path class="cls-1" d="M38.54,126.06c-24.24-5.31-7.74,35.27-7.74,35.27S62.78,131.38,38.54,126.06Zm-5.35,24.38s-9.93-27.73,5.35-24.38S33.19,150.44,33.19,150.44Z"/></g></g></svg>