<svg xmlns="http://www.w3.org/2000/svg" viewBox="0 0 81.59 159.39">
  <defs>
    <style>
      .cls-1 {
        fill: #f7931e;
      }
    </style>
  </defs>
  <title>Asset 3</title>
  <g id="Layer_2" data-name="Layer 2">
    <g id="Слой_1" data-name="Слой 1"><path
      class="cls-1"
      d="M73.27,79.23c1.5-5.34,3-11.11,4.34-17.26C85.74,25.51,66.46.62,66.26.38A1,1,0,0,0,65,.1c-.28.14-28.31,14.48-36.44,50.95-1.3,5.85-2.37,11.41-3.26,16.65C17.72,71.94,4.72,82.37,0,105.59a1,1,0,0,0,1.47,1,40.85,40.85,0,0,1,18.63-4.84c.45,0,.9,0,1.35,0-.38,7.11-.28,11.18-.27,11.28a1,1,0,0,0,.77.94l5.54,1.23-.81,3.63a1,1,0,0,0,.75,1.18l22.71,5.06.21,0a1,1,0,0,0,1-.77l.81-3.63,4.72,1.05.22,0a1,1,0,0,0,.88-.54c0-.09,1.84-3.69,4.49-10.2a40.72,40.72,0,0,1,15.31,12.51,1,1,0,0,0,.82.43c.06,0,.12,0,.18,0a.93.93,0,0,0,.78-.69C84.75,102,79.07,87.66,73.27,79.23ZM2.4,103.94C7,84.24,17.75,74.61,24.92,70.23,22.9,82.72,22,93,21.57,99.85c-.48,0-1,0-1.45,0A42.47,42.47,0,0,0,2.4,103.94ZM65.2,2.27A73,73,0,0,1,76.64,31.69L59.5,27.87,42.35,24A73,73,0,0,1,65.2,2.27Zm-25.87,53A13.82,13.82,0,0,1,55.75,44.69h0a13.83,13.83,0,0,1-6,27h0A13.82,13.82,0,0,1,39.33,55.25ZM49.63,123l-20.78-4.63.59-2.67,20.78,4.63Zm6.91-3.28-4.92-1.1v-.74l-22.71-5.8h0l-5.74-.54a246.87,246.87,0,0,1,2.62-34l21.5,5,21.5,4.88A255,255,0,0,1,56.54,119.74Zm21.56,1.06a42,42,0,0,0-14.88-11.53c2.47-6.22,6-15.74,9.39-27.66C77.62,89.58,82,102.4,78.09,120.8Z"/><path class="cls-1" d="M38.08,124.54c-24-5.25-7.65,34.84-7.65,34.84S62,129.8,38.08,124.54Zm-5.29,24.09s-9.81-27.4,5.28-24.09S32.79,148.63,32.79,148.63Z"/></g>
  </g>
</svg>
